<?xml version="1.0" encoding="iso-8859-1"?><!-- Generator: Adobe Illustrator 16.0.0, SVG Export Plug-In . SVG Version: 6.00 Build 0) --><!DOCTYPE svg PUBLIC "-//W3C//DTD SVG 1.1//EN" "http://www.w3.org/Graphics/SVG/1.1/DTD/svg11.dtd"><svg version="1.1" id="Layer_1" xmlns="http://www.w3.org/2000/svg" xmlns:xlink="http://www.w3.org/1999/xlink" x="0px" y="0px" width="396.681px" height="125.893px" viewBox="0 0 396.681 125.893" style="enable-background:new 0 0 396.681 125.893;" xml:space="preserve"><g><polygon style="fill-rule:evenodd;clip-rule:evenodd;fill:#2D509F;" points="0,0 396.681,0 396.681,93.72 0,93.72 0,0	"/><polygon style="fill-rule:evenodd;clip-rule:evenodd;fill:#FFFFFF;" points="21.594,72.088 375.007,72.088 375.007,79.217	21.594,79.217 21.594,72.088	"/><path style="fill-rule:evenodd;clip-rule:evenodd;fill:#FFFFFF;" d="M66.845,51.298c-0.835,3.635-2.825,6.731-5.97,9.286	c-3.538,2.85-7.763,4.275-12.677,4.275H21.593L33.09,14.963h23.805c4.668,0,8.23,1.032,10.687,3.095	c2.162,1.818,3.243,4.226,3.243,7.223c0,0.982-0.098,1.867-0.295,2.653c-0.638,2.555-1.953,4.864-3.942,6.928	c-1.99,2.063-4.385,3.464-7.186,4.201c2.555,0.54,4.496,1.646,5.823,3.316c1.326,1.67,1.989,3.636,1.989,5.896	C67.213,49.16,67.09,50.167,66.845,51.298L66.845,51.298z M58.369,28.893c0.099-0.491,0.147-0.835,0.147-1.032	c0-1.229-0.492-2.248-1.474-3.059c-0.983-0.811-2.481-1.216-4.496-1.216h-9.802l-2.506,10.908h10.392	c1.965,0,3.648-0.541,5.049-1.622C57.08,31.792,57.976,30.465,58.369,28.893L58.369,28.893z M54.61,49.455	c0.099-0.589,0.147-1.007,0.147-1.252c0-1.327-0.503-2.408-1.511-3.243c-1.007-0.835-2.592-1.253-4.754-1.253H38.102L35.375,55.72	h10.981c2.112,0,3.93-0.614,5.454-1.843C53.333,52.648,54.267,51.175,54.61,49.455L54.61,49.455z M111.433,64.858h-12.75	L97.651,54.54H81.363l-5.232,10.318H65.666L92.86,14.963h13.93L111.433,64.858L111.433,64.858z M96.841,45.328l-1.253-17.172	l-9.2,17.184L96.841,45.328L96.841,45.328z M156.096,64.858h-9.876l-12.013-33.239l-7.665,33.239h-9.286l11.497-49.895h12.16	l10.761,28.743l6.633-28.743h9.286L156.096,64.858L156.096,64.858z M201.273,64.858h-36.481l11.497-49.895h35.892l-1.989,8.623	H186.46l-2.211,9.729h19.088l-2.284,9.802h-19.088l-2.653,11.423h24.321L201.273,64.858L201.273,64.858z M246.673,51.666	c-0.983,4.422-4.078,8.008-9.286,10.76c-4.569,2.408-9.336,3.612-14.298,3.612c-4.373,0-8.033-0.812-10.981-2.433	c-4.422-2.408-6.633-6.388-6.633-11.939l11.57-2.285c0,2.752,1.18,4.692,3.538,5.822c1.425,0.688,3.193,1.032,5.307,1.032	c2.063,0,4.017-0.418,5.858-1.253c1.843-0.835,2.937-1.99,3.28-3.464c0.098-0.688,0.147-1.13,0.147-1.327	c0-2.113-1.941-3.685-5.822-4.717c-6.83-1.867-10.441-2.875-10.834-3.021c-3.931-1.769-5.896-4.545-5.896-8.329	c0-1.081,0.147-2.333,0.442-3.759c0.934-4.127,3.022-7.615,6.265-10.465c4.078-3.636,9.311-5.454,15.698-5.454	c4.226,0,7.714,0.762,10.465,2.285c3.587,2.014,5.381,5.085,5.381,9.212l-10.023,3.39c-0.394-3.931-3.021-5.896-7.886-5.896	c-1.721,0-3.316,0.394-4.791,1.179c-1.474,0.787-2.383,1.965-2.727,3.538c-0.099,0.589-0.147,0.982-0.147,1.179	c0,1.867,1.892,3.169,5.675,3.906c5.896,1.129,9.458,1.989,10.687,2.579c3.832,1.867,5.749,5.134,5.749,9.802	c0,0.983-0.05,1.904-0.147,2.764C247.164,49.246,246.968,50.339,246.673,51.666L246.673,51.666z M293.988,24.766h-12.677	l-9.286,40.093h-12.234l9.286-40.093h-12.75l2.211-9.802h37.661L293.988,24.766L293.988,24.766z M326.932,64.858H290.45	l11.497-49.895h35.893l-1.99,8.623h-23.731l-2.211,9.729h19.089l-2.285,9.802h-19.088L304.97,54.54h24.321L326.932,64.858	L326.932,64.858z M372.331,51.666c-0.982,4.422-4.078,8.008-9.286,10.76c-4.569,2.408-9.335,3.612-14.298,3.612	c-4.372,0-8.033-0.812-10.981-2.433c-4.422-2.408-6.633-6.388-6.633-11.939l11.571-2.285c0,2.752,1.179,4.692,3.538,5.822	c1.424,0.688,3.193,1.032,5.306,1.032c2.063,0,4.017-0.418,5.859-1.253c1.843-0.835,2.936-1.99,3.279-3.464	c0.099-0.688,0.147-1.13,0.147-1.327c0-2.113-1.94-3.685-5.822-4.717c-6.829-1.867-10.44-2.875-10.834-3.021	c-3.931-1.769-5.896-4.545-5.896-8.329c0-1.081,0.147-2.333,0.442-3.759c0.934-4.127,3.021-7.615,6.264-10.465	c4.078-3.636,9.312-5.454,15.698-5.454c4.226,0,7.714,0.762,10.466,2.285c3.587,2.014,5.38,5.085,5.38,9.212l-10.023,3.39	c-0.393-3.931-3.021-5.896-7.886-5.896c-1.72,0-3.316,0.394-4.791,1.179c-1.473,0.787-2.383,1.965-2.727,3.538	c-0.098,0.589-0.146,0.982-0.146,1.179c0,1.867,1.891,3.169,5.674,3.906c5.896,1.129,9.459,1.989,10.688,2.579	c3.832,1.867,5.748,5.134,5.748,9.802c0,0.983-0.049,1.904-0.147,2.764C372.823,49.246,372.626,50.339,372.331,51.666	L372.331,51.666z"/><path style="fill-rule:evenodd;clip-rule:evenodd;" d="M17.499,111.423c0,3.39-0.785,5.966-2.354,7.729	c-1.472,1.646-3.496,2.469-6.073,2.469c-2.712,0-4.823-0.861-6.334-2.586c-1.569-1.801-2.354-4.406-2.354-7.815	c0-2.79,0.697-5.124,2.092-7.003c1.569-2.111,3.69-3.167,6.363-3.167c2.79,0,4.969,1.075,6.538,3.225	C16.792,106.212,17.499,108.595,17.499,111.423L17.499,111.423z M12.588,110.899c0-1.763-0.344-3.191-1.032-4.285	c-0.688-1.095-1.555-1.642-2.601-1.642c-0.968,0-1.82,0.547-2.557,1.642c-0.736,1.094-1.104,2.513-1.104,4.257	c0,2.401,0.397,4.223,1.191,5.462c0.678,1.046,1.521,1.569,2.528,1.569c1.065,0,1.908-0.532,2.527-1.598	C12.24,115.104,12.588,113.302,12.588,110.899L12.588,110.899z M45.597,115.811c0,1.434-0.504,2.653-1.511,3.661	c-1.144,1.123-2.683,1.685-4.62,1.685h-10.49v-19.671h9.385c2.111,0,3.758,0.532,4.939,1.599c1.065,0.968,1.599,2.141,1.599,3.516	c0,1.007-0.3,1.922-0.901,2.746c-0.601,0.823-1.424,1.37-2.47,1.642c1.298,0.251,2.315,0.843,3.051,1.772	C45.258,113.611,45.597,114.629,45.597,115.811L45.597,115.811z M40.192,106.977c0-0.562-0.223-1.036-0.668-1.424	c-0.503-0.445-1.201-0.668-2.092-0.668h-3.864v4.301h4.097c0.775,0,1.39-0.218,1.845-0.654	C39.964,108.096,40.192,107.577,40.192,106.977L40.192,106.977z M40.599,115.084c0-0.658-0.223-1.182-0.668-1.569	c-0.523-0.465-1.279-0.697-2.267-0.697h-4.097v4.736h4.329c0.833,0,1.492-0.242,1.976-0.727	C40.356,116.343,40.599,115.762,40.599,115.084L40.599,115.084z M61.2,121.156h-4.329l-0.232-2.266	c-0.271,0.716-0.901,1.316-1.889,1.801s-2.043,0.727-3.167,0.727c-1.259,0-2.295-0.31-3.109-0.93	c-0.949-0.736-1.424-1.792-1.424-3.167c0-1.995,1.182-3.468,3.55-4.417c1.675-0.678,3.593-1.017,5.748-1.017	c0.059-0.271,0.087-0.514,0.087-0.727c0-0.736-0.218-1.283-0.658-1.642c-0.441-0.358-0.998-0.537-1.666-0.537	c-0.688,0-1.279,0.193-1.768,0.581c-0.489,0.388-0.731,0.938-0.731,1.656l-4.126-0.465c0.232-1.453,0.91-2.558,2.034-3.313	c1.201-0.812,2.886-1.22,5.056-1.22c2.886,0,4.736,0.697,5.55,2.092c0.407,0.697,0.61,2.121,0.61,4.271v4.969	c0,0.813,0.024,1.468,0.073,1.961C60.856,120.009,60.987,120.557,61.2,121.156L61.2,121.156z M56.435,114.154	c-1.109,0-2.126,0.213-3.041,0.639c-1.109,0.523-1.666,1.221-1.666,2.092c0,0.504,0.169,0.926,0.508,1.265	c0.339,0.339,0.79,0.509,1.351,0.509c0.756,0,1.366-0.214,1.831-0.64c0.678-0.62,1.017-1.627,1.017-3.022c0-0.213,0-0.377,0-0.493	C56.435,114.348,56.435,114.231,56.435,114.154L56.435,114.154z M76.251,121.156h-4.329v-8.571c0-0.93-0.18-1.627-0.538-2.092	c-0.358-0.465-0.809-0.697-1.351-0.697c-0.62,0-1.182,0.28-1.686,0.843c-0.504,0.562-0.755,1.287-0.755,2.179v8.339h-4.358v-14.702	h4.126v2.499c0.31-0.833,0.891-1.506,1.743-2.02c0.853-0.514,1.772-0.77,2.76-0.77c1.182,0,2.17,0.339,2.964,1.017	c0.949,0.813,1.424,1.937,1.424,3.37V121.156L76.251,121.156z M92,115.49c0,1.26-0.456,2.479-1.366,3.662	c-1.259,1.646-3.08,2.469-5.462,2.469c-2.286,0-4.068-0.784-5.347-2.354c-1.162-1.434-1.743-3.293-1.743-5.578	c0-1.802,0.475-3.42,1.423-4.853c1.259-1.879,3.07-2.818,5.434-2.818c1.86,0,3.429,0.475,4.707,1.423	c1.415,1.047,2.122,2.451,2.122,4.214l-4.097,0.232c0-1.065-0.204-1.802-0.61-2.208c-0.329-0.33-0.881-0.494-1.656-0.494	c-0.872,0-1.511,0.426-1.918,1.278c-0.407,0.853-0.61,2.005-0.61,3.458c0,1.298,0.208,2.3,0.625,3.007	c0.416,0.707,1.051,1.062,1.903,1.062c0.581,0,1.075-0.165,1.481-0.494c0.581-0.465,0.92-1.201,1.017-2.209L92,115.49L92,115.49z M107.749,113.689c0,2.44-0.654,4.373-1.961,5.797s-3.007,2.135-5.1,2.135c-2.499,0-4.329-0.861-5.491-2.586	c-0.93-1.375-1.395-3.157-1.395-5.346c0-2.848,0.901-4.939,2.702-6.276c1.259-0.931,2.731-1.395,4.417-1.395	c1.957,0,3.525,0.542,4.708,1.627C107.041,108.943,107.749,110.958,107.749,113.689L107.749,113.689z M103.187,113.689	c0-3.158-0.755-4.736-2.267-4.736c-0.853,0-1.486,0.393-1.903,1.177c-0.416,0.784-0.625,1.971-0.625,3.56	c0,1.317,0.106,2.344,0.32,3.08c0.368,1.259,1.026,1.889,1.976,1.889c1.027,0,1.715-0.427,2.063-1.279	C103.041,116.682,103.187,115.452,103.187,113.689L103.187,113.689z M131.052,115.49c0,1.898-0.62,3.381-1.859,4.446	c-1.124,0.968-2.548,1.452-4.271,1.452c-2.576,0-4.368-0.377-5.375-1.133c-0.891-0.678-1.54-1.734-1.947-3.167l3.894-0.437	c0.058,0.601,0.412,1.085,1.061,1.453s1.371,0.553,2.165,0.553c0.697,0,1.283-0.137,1.758-0.407	c0.475-0.271,0.712-0.659,0.712-1.162c0-0.853-0.765-1.356-2.296-1.511c-2.402-0.232-3.845-0.445-4.329-0.64	c-1.55-0.64-2.324-1.966-2.324-3.98c0-1.55,0.591-2.751,1.772-3.603c1.046-0.756,2.373-1.134,3.981-1.134	c1.666,0,2.973,0.242,3.923,0.727c1.22,0.619,2.043,1.666,2.47,3.138l-3.196,0.669c-0.155-0.62-0.446-1.095-0.872-1.424	c-0.542-0.407-1.317-0.61-2.324-0.61c-0.523,0-0.959,0.174-1.308,0.522s-0.523,0.785-0.523,1.308c0,0.523,0.736,0.891,2.209,1.104	c2.208,0.31,3.603,0.581,4.184,0.813C130.083,113.05,130.916,114.057,131.052,115.49L131.052,115.49z M146.132,116.188	c-0.329,1.531-1.128,2.78-2.397,3.749c-1.269,0.968-2.668,1.452-4.199,1.452c-2.421,0-4.31-0.726-5.666-2.179	c-1.259-1.356-1.889-3.119-1.889-5.288c0-2.189,0.601-4.02,1.802-5.492c1.317-1.607,3.08-2.411,5.288-2.411	c2.538,0,4.397,0.853,5.579,2.557c0.987,1.414,1.481,3.351,1.481,5.812h-9.588c0,1.278,0.32,2.275,0.959,2.992	c0.562,0.64,1.249,0.959,2.062,0.959c0.64,0,1.216-0.203,1.729-0.609c0.513-0.407,0.838-0.998,0.974-1.773L146.132,116.188	L146.132,116.188z M141.803,111.888c0-1.026-0.223-1.807-0.668-2.339c-0.446-0.533-0.998-0.799-1.656-0.799	c-0.697,0-1.332,0.275-1.903,0.828c-0.571,0.552-0.915,1.321-1.031,2.31H141.803L141.803,111.888z M169.667,121.156h-4.358v-9.961	c0-0.465-0.204-0.877-0.61-1.226c-0.407-0.349-0.862-0.522-1.366-0.522c-0.6,0-1.084,0.242-1.452,0.726	c-0.465,0.605-0.698,1.478-0.698,2.625v8.358h-4.097v-8.804c0-0.911-0.204-1.622-0.61-2.136c-0.407-0.514-0.892-0.77-1.453-0.77	c-0.581,0-1.104,0.266-1.569,0.799c-0.465,0.532-0.697,1.234-0.697,2.106v8.804h-4.358v-14.702h4.126v2.267	c0.387-0.872,0.988-1.545,1.802-2.02s1.666-0.712,2.557-0.712c0.91,0,1.709,0.208,2.397,0.625c0.688,0.416,1.167,1.041,1.438,1.874	c0.6-0.853,1.293-1.482,2.077-1.889c0.785-0.407,1.613-0.61,2.484-0.61c1.201,0,2.232,0.378,3.095,1.133	c0.862,0.756,1.292,1.744,1.292,2.964V121.156L169.667,121.156z M185.707,114.009c0,1.995-0.484,3.7-1.453,5.114	c-1.046,1.53-2.412,2.295-4.097,2.295c-1.182,0-2.092-0.223-2.731-0.668c-0.445-0.311-0.746-0.697-0.9-1.162v6.305h-4.359v-19.438	h4.126v2.034c0.329-0.736,0.837-1.298,1.525-1.686c0.688-0.388,1.399-0.581,2.135-0.581c1.802,0,3.235,0.813,4.3,2.44	C185.223,110.154,185.707,111.936,185.707,114.009L185.707,114.009z M181.319,113.689c0-1.569-0.228-2.727-0.683-3.473	c-0.456-0.746-1.012-1.118-1.671-1.118c-0.639,0-1.206,0.295-1.7,0.886c-0.494,0.591-0.741,1.303-0.741,2.136v3.37	c0,0.853,0.228,1.555,0.683,2.107c0.455,0.552,0.983,0.828,1.583,0.828c0.717,0,1.298-0.358,1.743-1.075	C181.058,116.518,181.319,115.297,181.319,113.689L181.319,113.689z M195.935,110.551c-1.259,0-2.208,0.407-2.847,1.221	c-0.542,0.697-0.814,1.569-0.814,2.615v6.77h-4.126v-14.702h3.894v2.499c0.543-1.065,0.892-1.676,1.046-1.831	c0.581-0.601,1.53-0.9,2.847-0.9V110.551L195.935,110.551z M210.783,116.188c-0.33,1.531-1.129,2.78-2.397,3.749	c-1.269,0.968-2.669,1.452-4.198,1.452c-2.422,0-4.311-0.726-5.667-2.179c-1.259-1.356-1.889-3.119-1.889-5.288	c0-2.189,0.601-4.02,1.802-5.492c1.317-1.607,3.08-2.411,5.288-2.411c2.538,0,4.397,0.853,5.579,2.557	c0.988,1.414,1.482,3.351,1.482,5.812h-9.589c0,1.278,0.319,2.275,0.959,2.992c0.562,0.64,1.249,0.959,2.062,0.959	c0.64,0,1.216-0.203,1.729-0.609c0.513-0.407,0.837-0.998,0.973-1.773L210.783,116.188L210.783,116.188z M206.453,111.888	c0-1.026-0.223-1.807-0.668-2.339c-0.445-0.533-0.998-0.799-1.656-0.799c-0.697,0-1.332,0.275-1.903,0.828	c-0.571,0.552-0.915,1.321-1.031,2.31H206.453L206.453,111.888z M235.307,114.009c0,1.995-0.484,3.7-1.453,5.114	c-1.046,1.53-2.412,2.295-4.097,2.295c-1.182,0-2.092-0.223-2.731-0.668c-0.445-0.311-0.746-0.697-0.9-1.162v6.305h-4.359v-19.438	h4.127v2.034c0.329-0.736,0.837-1.298,1.525-1.686c0.688-0.388,1.399-0.581,2.135-0.581c1.802,0,3.235,0.813,4.301,2.44	C234.822,110.154,235.307,111.936,235.307,114.009L235.307,114.009z M230.919,113.689c0-1.569-0.228-2.727-0.683-3.473	s-1.012-1.118-1.671-1.118c-0.64,0-1.206,0.295-1.7,0.886s-0.74,1.303-0.74,2.136v3.37c0,0.853,0.228,1.555,0.683,2.107	c0.455,0.552,0.983,0.828,1.583,0.828c0.717,0,1.299-0.358,1.744-1.075C230.657,116.518,230.919,115.297,230.919,113.689	L230.919,113.689z M250.532,116.188c-0.329,1.531-1.129,2.78-2.397,3.749c-1.269,0.968-2.668,1.452-4.198,1.452	c-2.421,0-4.311-0.726-5.666-2.179c-1.26-1.356-1.889-3.119-1.889-5.288c0-2.189,0.601-4.02,1.801-5.492	c1.317-1.607,3.08-2.411,5.288-2.411c2.538,0,4.398,0.853,5.579,2.557c0.988,1.414,1.482,3.351,1.482,5.812h-9.589	c0,1.278,0.319,2.275,0.959,2.992c0.562,0.64,1.25,0.959,2.062,0.959c0.64,0,1.216-0.203,1.729-0.609	c0.513-0.407,0.838-0.998,0.974-1.773L250.532,116.188L250.532,116.188z M246.203,111.888c0-1.026-0.223-1.807-0.669-2.339	c-0.445-0.533-0.997-0.799-1.656-0.799c-0.697,0-1.331,0.275-1.903,0.828c-0.571,0.552-0.915,1.321-1.031,2.31H246.203	L246.203,111.888z M261.051,110.551c-1.26,0-2.209,0.407-2.848,1.221c-0.543,0.697-0.813,1.569-0.813,2.615v6.77h-4.126v-14.702	h3.894v2.499c0.542-1.065,0.891-1.676,1.046-1.831c0.581-0.601,1.53-0.9,2.848-0.9V110.551L261.051,110.551z M271.568,121.156	c-0.968,0.175-1.65,0.286-2.048,0.335c-0.397,0.048-0.876,0.072-1.438,0.072c-1.434,0-2.499-0.319-3.196-0.959	c-0.871-0.794-1.308-2.111-1.308-3.952v-6.334h-2.295v-3.864h2.527l0.437-4.067l3.661-0.204v4.271h3.225v3.864h-3.225v5.172	c0,0.949,0.154,1.604,0.465,1.962c0.31,0.358,0.755,0.538,1.336,0.538c0.213,0,0.558-0.035,1.032-0.103s0.75-0.111,0.827-0.131	V121.156L271.568,121.156z M287.114,113.689c0,2.44-0.653,4.373-1.962,5.797c-1.307,1.424-3.007,2.135-5.099,2.135	c-2.499,0-4.329-0.861-5.491-2.586c-0.931-1.375-1.396-3.157-1.396-5.346c0-2.848,0.901-4.939,2.702-6.276	c1.26-0.931,2.731-1.395,4.417-1.395c1.956,0,3.525,0.542,4.707,1.627C286.407,108.943,287.114,110.958,287.114,113.689	L287.114,113.689z M282.553,113.689c0-3.158-0.756-4.736-2.267-4.736c-0.853,0-1.487,0.393-1.903,1.177s-0.625,1.971-0.625,3.56	c0,1.317,0.106,2.344,0.32,3.08c0.367,1.259,1.026,1.889,1.976,1.889c1.026,0,1.714-0.427,2.062-1.279	C282.407,116.682,282.553,115.452,282.553,113.689L282.553,113.689z M310.418,121.156h-4.068v-2.033	c-0.31,0.736-0.697,1.298-1.162,1.685c-0.678,0.543-1.588,0.813-2.731,0.813c-2.034,0-3.486-0.949-4.358-2.847	c-0.601-1.298-0.9-2.993-0.9-5.085c0-2.422,0.484-4.306,1.452-5.652c0.969-1.346,2.237-2.019,3.807-2.019	c0.872,0,1.612,0.136,2.223,0.406c0.61,0.271,1.09,0.736,1.438,1.396v-6.335h4.301V121.156L310.418,121.156z M306.35,113.021	c0-1.433-0.232-2.509-0.697-3.225c-0.368-0.562-0.823-0.843-1.365-0.843c-0.911,0-1.589,0.552-2.034,1.656	c-0.329,0.813-0.494,1.763-0.494,2.848c0,1.414,0.077,2.44,0.232,3.08c0.31,1.278,0.92,1.917,1.831,1.917	c1.316,0,2.111-0.871,2.383-2.614C306.302,115.2,306.35,114.261,306.35,113.021L306.35,113.021z M326.631,116.188	c-0.329,1.531-1.128,2.78-2.396,3.749c-1.27,0.968-2.669,1.452-4.199,1.452c-2.421,0-4.31-0.726-5.666-2.179	c-1.259-1.356-1.889-3.119-1.889-5.288c0-2.189,0.601-4.02,1.802-5.492c1.317-1.607,3.08-2.411,5.288-2.411	c2.538,0,4.397,0.853,5.579,2.557c0.987,1.414,1.481,3.351,1.481,5.812h-9.588c0,1.278,0.319,2.275,0.959,2.992	c0.561,0.64,1.249,0.959,2.062,0.959c0.64,0,1.216-0.203,1.729-0.609c0.514-0.407,0.838-0.998,0.974-1.773L326.631,116.188	L326.631,116.188z M322.302,111.888c0-1.026-0.223-1.807-0.668-2.339c-0.446-0.533-0.998-0.799-1.656-0.799	c-0.697,0-1.332,0.275-1.903,0.828c-0.571,0.552-0.916,1.321-1.031,2.31H322.302L322.302,111.888z M349.731,106.454l-5.027,14.702	h-3.196l-5.259-14.702h4.557l2.756,9.23l2.974-9.23H349.731L349.731,106.454z M364.782,113.689c0,2.44-0.653,4.373-1.961,5.797	s-3.007,2.135-5.1,2.135c-2.499,0-4.329-0.861-5.491-2.586c-0.93-1.375-1.395-3.157-1.395-5.346c0-2.848,0.9-4.939,2.702-6.276	c1.259-0.931,2.73-1.395,4.416-1.395c1.957,0,3.525,0.542,4.707,1.627C364.075,108.943,364.782,110.958,364.782,113.689	L364.782,113.689z M360.221,113.689c0-3.158-0.756-4.736-2.267-4.736c-0.853,0-1.486,0.393-1.903,1.177	c-0.416,0.784-0.624,1.971-0.624,3.56c0,1.317,0.106,2.344,0.319,3.08c0.368,1.259,1.026,1.889,1.976,1.889	c1.026,0,1.714-0.427,2.063-1.279C360.075,116.682,360.221,115.452,360.221,113.689L360.221,113.689z M380.066,115.49	c0,1.26-0.455,2.479-1.365,3.662c-1.26,1.646-3.081,2.469-5.463,2.469c-2.286,0-4.068-0.784-5.347-2.354	c-1.162-1.434-1.743-3.293-1.743-5.578c0-1.802,0.475-3.42,1.424-4.853c1.259-1.879,3.07-2.818,5.434-2.818	c1.859,0,3.429,0.475,4.707,1.423c1.414,1.047,2.121,2.451,2.121,4.214l-4.097,0.232c0-1.065-0.204-1.802-0.61-2.208	c-0.33-0.33-0.882-0.494-1.656-0.494c-0.872,0-1.512,0.426-1.918,1.278c-0.407,0.853-0.61,2.005-0.61,3.458	c0,1.298,0.208,2.3,0.625,3.007c0.416,0.707,1.051,1.062,1.903,1.062c0.581,0,1.075-0.165,1.481-0.494	c0.581-0.465,0.921-1.201,1.017-2.209L380.066,115.49L380.066,115.49z M395.582,116.188c-0.329,1.531-1.128,2.78-2.396,3.749	c-1.27,0.968-2.668,1.452-4.199,1.452c-2.421,0-4.31-0.726-5.666-2.179c-1.259-1.356-1.889-3.119-1.889-5.288	c0-2.189,0.601-4.02,1.802-5.492c1.317-1.607,3.08-2.411,5.288-2.411c2.538,0,4.397,0.853,5.579,2.557	c0.987,1.414,1.481,3.351,1.481,5.812h-9.588c0,1.278,0.319,2.275,0.958,2.992c0.562,0.64,1.25,0.959,2.063,0.959	c0.639,0,1.216-0.203,1.729-0.609c0.514-0.407,0.838-0.998,0.974-1.773L395.582,116.188L395.582,116.188z M391.253,111.888	c0-1.026-0.223-1.807-0.668-2.339c-0.445-0.533-0.998-0.799-1.657-0.799c-0.696,0-1.331,0.275-1.902,0.828	c-0.572,0.552-0.915,1.321-1.031,2.31H391.253L391.253,111.888z M394.13,103.927h-3.167l-2.528-1.574l-2.295,1.574h-2.964	l5.259-4.271L394.13,103.927L394.13,103.927z"/></g></svg>